<svg width="100%" height="200" viewBox="0 0 1200 200" xmlns="http://www.w3.org/2000/svg">
  <defs>
    <linearGradient id="bg" x1="0%" y1="0%" x2="100%" y2="100%">
      <stop offset="0%" stop-color="#0a0a0a"/>
      <stop offset="100%" stop-color="#000000"/>
    </linearGradient>
  </defs>

  <rect width="1200" height="200" fill="url(#bg)"/>

  <text x="600" y="95" text-anchor="middle" font-family="Georgia, 'Times New Roman', serif" font-size="46" font-weight="bold" font-style="italic" fill="#ffffff">
    Thaina Rossinoli
  </text>

  <text x="600" y="130" text-anchor="middle" font-family="Verdana, Geneva, sans-serif" font-size="16" letter-spacing="2" fill="#9a9a9a">
    MOBILE  •  FRONT-END  •  ANÁLISE DE REQUISITOS
  </text>

  <path d="M0,170 C150,200 300,140 450,170 C600,200 750,140 900,170 C1050,200 1150,150 1200,170 L1200,200 L0,200 Z" fill="#141414"/>
  <path d="M0,180 C150,210 300,150 450,180 C600,210 750,150 900,180 C1050,210 1150,160 1200,180 L1200,200 L0,200 Z" fill="#1f1f1f"/>
</svg>
